<mxfile host="app.diagrams.net" modified="2021-02-17T09:56:55.509Z" agent="5.0 (Windows NT 10.0; Win64; x64) AppleWebKit/537.36 (KHTML, like Gecko) Chrome/88.0.4324.150 Safari/537.36 OPR/74.0.3911.107" etag="MG-rtizEU4h-MrohKGfv" version="14.3.2" type="github">
  <diagram id="hLvbFPvER6smxe1DaEyC" name="Page-1">
    <mxGraphModel dx="3300" dy="3529" grid="1" gridSize="10" guides="1" tooltips="1" connect="1" arrows="1" fold="1" page="1" pageScale="1" pageWidth="827" pageHeight="1169" math="0" shadow="0">
      <root>
        <mxCell id="0" />
        <mxCell id="1" parent="0" />
        <mxCell id="lqc5_xZJ1Iw9UYwcaw_J-13" style="edgeStyle=orthogonalEdgeStyle;rounded=0;orthogonalLoop=1;jettySize=auto;html=1;entryX=0;entryY=0.5;entryDx=0;entryDy=0;endArrow=none;endFill=0;exitX=0.5;exitY=0;exitDx=0;exitDy=0;" edge="1" parent="1" source="1c6ZH7vMenbnLPpmqNAf-1" target="1c6ZH7vMenbnLPpmqNAf-60">
          <mxGeometry relative="1" as="geometry" />
        </mxCell>
        <mxCell id="lqc5_xZJ1Iw9UYwcaw_J-24" style="edgeStyle=orthogonalEdgeStyle;rounded=0;orthogonalLoop=1;jettySize=auto;html=1;entryX=1;entryY=1;entryDx=0;entryDy=0;endArrow=none;endFill=0;" edge="1" parent="1" source="1c6ZH7vMenbnLPpmqNAf-1" target="1c6ZH7vMenbnLPpmqNAf-2">
          <mxGeometry relative="1" as="geometry" />
        </mxCell>
        <mxCell id="1c6ZH7vMenbnLPpmqNAf-1" value="&lt;b&gt;&lt;font style=&quot;font-size: 24px&quot;&gt;Санкт-Петербург&lt;/font&gt;&lt;/b&gt;" style="ellipse;whiteSpace=wrap;html=1;" parent="1" vertex="1">
          <mxGeometry x="-120" y="-330" width="250" height="240" as="geometry" />
        </mxCell>
        <mxCell id="1c6ZH7vMenbnLPpmqNAf-2" value="&lt;b&gt;&lt;font style=&quot;font-size: 24px&quot;&gt;Иосиф Бродский&lt;/font&gt;&lt;/b&gt;" style="ellipse;whiteSpace=wrap;html=1;" parent="1" vertex="1">
          <mxGeometry x="-400" y="-1090" width="250" height="250" as="geometry" />
        </mxCell>
        <mxCell id="1c6ZH7vMenbnLPpmqNAf-44" style="edgeStyle=orthogonalEdgeStyle;rounded=0;orthogonalLoop=1;jettySize=auto;html=1;entryX=1;entryY=0.25;entryDx=0;entryDy=0;endArrow=none;endFill=0;" parent="1" source="1c6ZH7vMenbnLPpmqNAf-3" target="1c6ZH7vMenbnLPpmqNAf-60" edge="1">
          <mxGeometry relative="1" as="geometry">
            <mxPoint x="660" y="165" as="targetPoint" />
          </mxGeometry>
        </mxCell>
        <mxCell id="1c6ZH7vMenbnLPpmqNAf-3" value="&lt;b&gt;&lt;font style=&quot;font-size: 24px&quot;&gt;Франция&lt;/font&gt;&lt;/b&gt;" style="ellipse;whiteSpace=wrap;html=1;" parent="1" vertex="1">
          <mxGeometry x="1270" y="-1110" width="250" height="250" as="geometry" />
        </mxCell>
        <mxCell id="1c6ZH7vMenbnLPpmqNAf-4" value="&lt;b&gt;&lt;font style=&quot;font-size: 24px&quot;&gt;Жанна Д&#39;Арк&lt;/font&gt;&lt;/b&gt;" style="ellipse;whiteSpace=wrap;html=1;" parent="1" vertex="1">
          <mxGeometry x="1085" y="35" width="250" height="250" as="geometry" />
        </mxCell>
        <mxCell id="1c6ZH7vMenbnLPpmqNAf-12" value="&lt;font style=&quot;font-size: 18px&quot;&gt;Распад слов (Энтропия)&lt;/font&gt;" style="ellipse;whiteSpace=wrap;html=1;" parent="1" vertex="1">
          <mxGeometry x="-335" y="430" width="120" height="120" as="geometry" />
        </mxCell>
        <mxCell id="1c6ZH7vMenbnLPpmqNAf-33" style="edgeStyle=orthogonalEdgeStyle;rounded=0;orthogonalLoop=1;jettySize=auto;html=1;entryX=1;entryY=0.5;entryDx=0;entryDy=0;endArrow=none;endFill=0;exitX=0;exitY=0.5;exitDx=0;exitDy=0;" parent="1" source="1c6ZH7vMenbnLPpmqNAf-19" target="1c6ZH7vMenbnLPpmqNAf-12" edge="1">
          <mxGeometry relative="1" as="geometry">
            <Array as="points">
              <mxPoint x="450" y="500" />
              <mxPoint x="-215" y="500" />
            </Array>
          </mxGeometry>
        </mxCell>
        <mxCell id="1c6ZH7vMenbnLPpmqNAf-34" value="&lt;span style=&quot;color: rgb(34 , 34 , 34) ; font-family: &amp;#34;programme&amp;#34; , &amp;#34;arial&amp;#34; , sans-serif ; font-size: 18px&quot;&gt;Можно буквы записать, но их звуки живут лишь раз&lt;/span&gt;" style="edgeLabel;html=1;align=center;verticalAlign=middle;resizable=0;points=[];" parent="1c6ZH7vMenbnLPpmqNAf-33" vertex="1" connectable="0">
          <mxGeometry x="-0.1643" y="1" relative="1" as="geometry">
            <mxPoint x="-165" y="-1" as="offset" />
          </mxGeometry>
        </mxCell>
        <mxCell id="lqc5_xZJ1Iw9UYwcaw_J-9" style="edgeStyle=orthogonalEdgeStyle;rounded=0;orthogonalLoop=1;jettySize=auto;html=1;entryX=0.5;entryY=1;entryDx=0;entryDy=0;endArrow=none;endFill=0;" edge="1" parent="1" source="1c6ZH7vMenbnLPpmqNAf-19" target="lqc5_xZJ1Iw9UYwcaw_J-5">
          <mxGeometry relative="1" as="geometry" />
        </mxCell>
        <mxCell id="lqc5_xZJ1Iw9UYwcaw_J-10" value="&lt;div&gt;&lt;span style=&quot;font-size: 18px&quot;&gt;Мне снова так хочется на ту сторону (Где ты)&lt;/span&gt;&lt;/div&gt;&lt;div&gt;&lt;span style=&quot;font-size: 18px&quot;&gt;Моя обратная луна&lt;/span&gt;&lt;/div&gt;" style="edgeLabel;html=1;align=center;verticalAlign=middle;resizable=0;points=[];" vertex="1" connectable="0" parent="lqc5_xZJ1Iw9UYwcaw_J-9">
          <mxGeometry x="0.1047" y="-6" relative="1" as="geometry">
            <mxPoint x="-1" as="offset" />
          </mxGeometry>
        </mxCell>
        <mxCell id="1c6ZH7vMenbnLPpmqNAf-19" value="&lt;font size=&quot;1&quot;&gt;&lt;span style=&quot;color: rgb(34 , 34 , 34) ; font-family: &amp;#34;programme&amp;#34; , &amp;#34;arial&amp;#34; , sans-serif ; font-size: 18px ; background-color: rgb(255 , 255 , 255)&quot;&gt;Письмо и безразличие интро&lt;/span&gt;&lt;/font&gt;" style="rounded=1;whiteSpace=wrap;html=1;" parent="1" vertex="1">
          <mxGeometry x="340" y="470" width="250" height="70" as="geometry" />
        </mxCell>
        <mxCell id="1c6ZH7vMenbnLPpmqNAf-32" style="edgeStyle=orthogonalEdgeStyle;rounded=0;orthogonalLoop=1;jettySize=auto;html=1;exitX=0;exitY=0.5;exitDx=0;exitDy=0;endArrow=none;endFill=0;" parent="1" source="1c6ZH7vMenbnLPpmqNAf-20" target="1c6ZH7vMenbnLPpmqNAf-12" edge="1">
          <mxGeometry relative="1" as="geometry" />
        </mxCell>
        <mxCell id="1c6ZH7vMenbnLPpmqNAf-35" value="&lt;div style=&quot;font-size: 18px&quot;&gt;&lt;font style=&quot;font-size: 18px&quot;&gt;Тот, с которым знаки распадаются на звуки и на буквы&lt;/font&gt;&lt;/div&gt;&lt;div style=&quot;font-size: 18px&quot;&gt;&lt;font style=&quot;font-size: 18px&quot;&gt;(Приобретая смерть)&lt;/font&gt;&lt;/div&gt;" style="edgeLabel;html=1;align=center;verticalAlign=middle;resizable=0;points=[];" parent="1c6ZH7vMenbnLPpmqNAf-32" vertex="1" connectable="0">
          <mxGeometry x="-0.1363" y="-3" relative="1" as="geometry">
            <mxPoint as="offset" />
          </mxGeometry>
        </mxCell>
        <mxCell id="1c6ZH7vMenbnLPpmqNAf-47" style="edgeStyle=orthogonalEdgeStyle;rounded=0;orthogonalLoop=1;jettySize=auto;html=1;entryX=1;entryY=0.5;entryDx=0;entryDy=0;endArrow=none;endFill=0;" parent="1" source="1c6ZH7vMenbnLPpmqNAf-20" target="1c6ZH7vMenbnLPpmqNAf-46" edge="1">
          <mxGeometry relative="1" as="geometry" />
        </mxCell>
        <mxCell id="lqc5_xZJ1Iw9UYwcaw_J-11" value="&lt;span style=&quot;font-size: 18px&quot;&gt;Веснушки как признак ведьмы&lt;/span&gt;" style="edgeLabel;html=1;align=center;verticalAlign=middle;resizable=0;points=[];" vertex="1" connectable="0" parent="1c6ZH7vMenbnLPpmqNAf-47">
          <mxGeometry x="-0.4323" y="-4" relative="1" as="geometry">
            <mxPoint x="-1" y="-4" as="offset" />
          </mxGeometry>
        </mxCell>
        <mxCell id="1c6ZH7vMenbnLPpmqNAf-20" value="&lt;font size=&quot;1&quot;&gt;&lt;span style=&quot;color: rgb(34 , 34 , 34) ; font-family: &amp;#34;programme&amp;#34; , &amp;#34;arial&amp;#34; , sans-serif ; background-color: rgb(247 , 247 , 247) ; font-size: 18px&quot;&gt;Веснушки&lt;/span&gt;&lt;/font&gt;" style="rounded=1;whiteSpace=wrap;html=1;arcSize=0;" parent="1" vertex="1">
          <mxGeometry x="70" y="890" width="250" height="70" as="geometry" />
        </mxCell>
        <mxCell id="1c6ZH7vMenbnLPpmqNAf-61" style="edgeStyle=orthogonalEdgeStyle;rounded=0;orthogonalLoop=1;jettySize=auto;html=1;entryX=1;entryY=0.5;entryDx=0;entryDy=0;endArrow=none;endFill=0;" parent="1" source="1c6ZH7vMenbnLPpmqNAf-21" target="1c6ZH7vMenbnLPpmqNAf-54" edge="1">
          <mxGeometry relative="1" as="geometry" />
        </mxCell>
        <mxCell id="1c6ZH7vMenbnLPpmqNAf-64" value="&lt;span style=&quot;color: rgb(34 , 34 , 34) ; font-family: &amp;#34;programme&amp;#34; , &amp;#34;arial&amp;#34; , sans-serif ; font-size: 18px&quot;&gt;Ибо порой мы горим&lt;/span&gt;&lt;br style=&quot;box-sizing: border-box ; color: rgb(34 , 34 , 34) ; font-family: &amp;#34;programme&amp;#34; , &amp;#34;arial&amp;#34; , sans-serif ; font-size: 18px&quot;&gt;&lt;span style=&quot;color: rgb(34 , 34 , 34) ; font-family: &amp;#34;programme&amp;#34; , &amp;#34;arial&amp;#34; , sans-serif ; font-size: 18px&quot;&gt;Ну совсем за ненужные вещи&lt;/span&gt;" style="edgeLabel;html=1;align=center;verticalAlign=middle;resizable=0;points=[];" parent="1c6ZH7vMenbnLPpmqNAf-61" vertex="1" connectable="0">
          <mxGeometry x="-0.1432" y="7" relative="1" as="geometry">
            <mxPoint y="-1" as="offset" />
          </mxGeometry>
        </mxCell>
        <mxCell id="1c6ZH7vMenbnLPpmqNAf-62" style="edgeStyle=orthogonalEdgeStyle;rounded=0;orthogonalLoop=1;jettySize=auto;html=1;entryX=1;entryY=0.5;entryDx=0;entryDy=0;endArrow=none;endFill=0;" parent="1" source="1c6ZH7vMenbnLPpmqNAf-21" target="1c6ZH7vMenbnLPpmqNAf-55" edge="1">
          <mxGeometry relative="1" as="geometry" />
        </mxCell>
        <mxCell id="1c6ZH7vMenbnLPpmqNAf-21" value="&lt;font color=&quot;#222222&quot; face=&quot;programme, arial, sans-serif&quot; style=&quot;font-size: 18px&quot;&gt;Абсолютно чёрное тело&lt;/font&gt;" style="rounded=1;whiteSpace=wrap;html=1;" parent="1" vertex="1">
          <mxGeometry x="1275" y="860" width="250" height="70" as="geometry" />
        </mxCell>
        <mxCell id="lqc5_xZJ1Iw9UYwcaw_J-21" style="edgeStyle=orthogonalEdgeStyle;rounded=0;orthogonalLoop=1;jettySize=auto;html=1;entryX=0;entryY=0.5;entryDx=0;entryDy=0;endArrow=none;endFill=0;" edge="1" parent="1" source="1c6ZH7vMenbnLPpmqNAf-22" target="lqc5_xZJ1Iw9UYwcaw_J-19">
          <mxGeometry relative="1" as="geometry" />
        </mxCell>
        <mxCell id="lqc5_xZJ1Iw9UYwcaw_J-22" value="&lt;font style=&quot;font-size: 18px&quot;&gt;Зависим, словно игрек по иксу&lt;/font&gt;" style="edgeLabel;html=1;align=center;verticalAlign=middle;resizable=0;points=[];" vertex="1" connectable="0" parent="lqc5_xZJ1Iw9UYwcaw_J-21">
          <mxGeometry x="0.1343" y="-1" relative="1" as="geometry">
            <mxPoint x="-14" y="-1" as="offset" />
          </mxGeometry>
        </mxCell>
        <mxCell id="lqc5_xZJ1Iw9UYwcaw_J-25" style="edgeStyle=orthogonalEdgeStyle;rounded=0;orthogonalLoop=1;jettySize=auto;html=1;entryX=1;entryY=0.5;entryDx=0;entryDy=0;endArrow=none;endFill=0;exitX=0.5;exitY=0;exitDx=0;exitDy=0;" edge="1" parent="1" source="1c6ZH7vMenbnLPpmqNAf-22" target="lqc5_xZJ1Iw9UYwcaw_J-23">
          <mxGeometry relative="1" as="geometry" />
        </mxCell>
        <mxCell id="lqc5_xZJ1Iw9UYwcaw_J-26" value="&lt;font style=&quot;font-size: 18px&quot;&gt;Город дышит, и он, кажется, живой&lt;/font&gt;" style="edgeLabel;html=1;align=center;verticalAlign=middle;resizable=0;points=[];" vertex="1" connectable="0" parent="lqc5_xZJ1Iw9UYwcaw_J-25">
          <mxGeometry x="0.5756" y="6" relative="1" as="geometry">
            <mxPoint x="78.33" y="164" as="offset" />
          </mxGeometry>
        </mxCell>
        <mxCell id="1c6ZH7vMenbnLPpmqNAf-22" value="&lt;font color=&quot;#222222&quot; face=&quot;programme, arial, sans-serif&quot;&gt;&lt;span style=&quot;background-color: rgb(247 , 247 , 247)&quot;&gt;&lt;font style=&quot;font-size: 18px&quot;&gt;Зависимость&lt;/font&gt;&lt;br&gt;&lt;/span&gt;&lt;/font&gt;" style="rounded=1;whiteSpace=wrap;html=1;" parent="1" vertex="1">
          <mxGeometry x="340" y="-360" width="250" height="70" as="geometry" />
        </mxCell>
        <mxCell id="1c6ZH7vMenbnLPpmqNAf-50" style="edgeStyle=orthogonalEdgeStyle;rounded=0;orthogonalLoop=1;jettySize=auto;html=1;entryX=0.5;entryY=0;entryDx=0;entryDy=0;endArrow=none;endFill=0;" parent="1" source="1c6ZH7vMenbnLPpmqNAf-23" target="1c6ZH7vMenbnLPpmqNAf-49" edge="1">
          <mxGeometry relative="1" as="geometry" />
        </mxCell>
        <mxCell id="1c6ZH7vMenbnLPpmqNAf-23" value="&lt;font style=&quot;font-size: 18px&quot;&gt;Да что романтичного в птичках?&lt;/font&gt;" style="rounded=1;whiteSpace=wrap;html=1;" parent="1" vertex="1">
          <mxGeometry x="-755" y="-670" width="250" height="70" as="geometry" />
        </mxCell>
        <mxCell id="1c6ZH7vMenbnLPpmqNAf-38" style="edgeStyle=orthogonalEdgeStyle;rounded=0;orthogonalLoop=1;jettySize=auto;html=1;exitX=0.5;exitY=1;exitDx=0;exitDy=0;entryX=0.5;entryY=0;entryDx=0;entryDy=0;endArrow=none;endFill=0;" parent="1" source="1c6ZH7vMenbnLPpmqNAf-37" target="1c6ZH7vMenbnLPpmqNAf-12" edge="1">
          <mxGeometry relative="1" as="geometry" />
        </mxCell>
        <mxCell id="1c6ZH7vMenbnLPpmqNAf-39" value="&lt;span style=&quot;color: rgb(34 , 34 , 34) ; font-family: &amp;#34;programme&amp;#34; , &amp;#34;arial&amp;#34; , sans-serif ; font-size: 18px&quot;&gt;У слов тоже есть свой распад&lt;/span&gt;" style="edgeLabel;html=1;align=center;verticalAlign=middle;resizable=0;points=[];" parent="1c6ZH7vMenbnLPpmqNAf-38" vertex="1" connectable="0">
          <mxGeometry x="0.1947" relative="1" as="geometry">
            <mxPoint as="offset" />
          </mxGeometry>
        </mxCell>
        <mxCell id="1c6ZH7vMenbnLPpmqNAf-40" style="edgeStyle=orthogonalEdgeStyle;rounded=0;orthogonalLoop=1;jettySize=auto;html=1;exitX=0.5;exitY=0;exitDx=0;exitDy=0;entryX=0.5;entryY=1;entryDx=0;entryDy=0;endArrow=none;endFill=0;" parent="1" source="1c6ZH7vMenbnLPpmqNAf-37" target="1c6ZH7vMenbnLPpmqNAf-2" edge="1">
          <mxGeometry relative="1" as="geometry" />
        </mxCell>
        <mxCell id="1c6ZH7vMenbnLPpmqNAf-37" value="&lt;font color=&quot;#222222&quot; face=&quot;programme, arial, sans-serif&quot;&gt;&lt;span style=&quot;background-color: rgb(247 , 247 , 247)&quot;&gt;&lt;font style=&quot;font-size: 18px&quot;&gt;Нефть (Письмо Иосифу)&lt;/font&gt;&lt;br&gt;&lt;/span&gt;&lt;/font&gt;" style="rounded=1;whiteSpace=wrap;html=1;" parent="1" vertex="1">
          <mxGeometry x="-400" y="-130" width="250" height="70" as="geometry" />
        </mxCell>
        <mxCell id="1c6ZH7vMenbnLPpmqNAf-43" style="edgeStyle=orthogonalEdgeStyle;rounded=0;orthogonalLoop=1;jettySize=auto;html=1;entryX=1;entryY=0.5;entryDx=0;entryDy=0;endArrow=none;endFill=0;exitX=0.5;exitY=0;exitDx=0;exitDy=0;" parent="1" source="1c6ZH7vMenbnLPpmqNAf-60" target="1c6ZH7vMenbnLPpmqNAf-2" edge="1">
          <mxGeometry relative="1" as="geometry">
            <mxPoint x="600" y="105" as="sourcePoint" />
          </mxGeometry>
        </mxCell>
        <mxCell id="1c6ZH7vMenbnLPpmqNAf-53" style="edgeStyle=orthogonalEdgeStyle;rounded=0;orthogonalLoop=1;jettySize=auto;html=1;entryX=0.5;entryY=1;entryDx=0;entryDy=0;endArrow=none;endFill=0;" parent="1" source="1c6ZH7vMenbnLPpmqNAf-46" target="1c6ZH7vMenbnLPpmqNAf-4" edge="1">
          <mxGeometry relative="1" as="geometry" />
        </mxCell>
        <mxCell id="1c6ZH7vMenbnLPpmqNAf-56" value="" style="edgeStyle=orthogonalEdgeStyle;rounded=0;orthogonalLoop=1;jettySize=auto;html=1;endArrow=none;endFill=0;" parent="1" source="1c6ZH7vMenbnLPpmqNAf-46" target="1c6ZH7vMenbnLPpmqNAf-54" edge="1">
          <mxGeometry relative="1" as="geometry" />
        </mxCell>
        <mxCell id="1c6ZH7vMenbnLPpmqNAf-46" value="&lt;span style=&quot;font-size: 18px&quot;&gt;Сожжение на костре&lt;/span&gt;" style="ellipse;whiteSpace=wrap;html=1;direction=south;" parent="1" vertex="1">
          <mxGeometry x="1150" y="480" width="120" height="120" as="geometry" />
        </mxCell>
        <mxCell id="1c6ZH7vMenbnLPpmqNAf-51" style="edgeStyle=orthogonalEdgeStyle;rounded=0;orthogonalLoop=1;jettySize=auto;html=1;entryX=0;entryY=0.5;entryDx=0;entryDy=0;endArrow=none;endFill=0;exitX=0.5;exitY=1;exitDx=0;exitDy=0;" parent="1" source="1c6ZH7vMenbnLPpmqNAf-49" target="1c6ZH7vMenbnLPpmqNAf-37" edge="1">
          <mxGeometry relative="1" as="geometry">
            <Array as="points">
              <mxPoint x="-630" y="-95" />
            </Array>
          </mxGeometry>
        </mxCell>
        <mxCell id="1c6ZH7vMenbnLPpmqNAf-52" value="&lt;font style=&quot;font-size: 18px&quot;&gt;Примыкая во строй синиц&lt;/font&gt;" style="edgeLabel;html=1;align=center;verticalAlign=middle;resizable=0;points=[];" parent="1c6ZH7vMenbnLPpmqNAf-51" vertex="1" connectable="0">
          <mxGeometry x="0.2143" y="1" relative="1" as="geometry">
            <mxPoint as="offset" />
          </mxGeometry>
        </mxCell>
        <mxCell id="1c6ZH7vMenbnLPpmqNAf-49" value="&lt;span style=&quot;font-size: 18px&quot;&gt;Птицы&lt;/span&gt;" style="ellipse;whiteSpace=wrap;html=1;" parent="1" vertex="1">
          <mxGeometry x="-690" y="-330" width="120" height="120" as="geometry" />
        </mxCell>
        <mxCell id="1c6ZH7vMenbnLPpmqNAf-58" style="edgeStyle=orthogonalEdgeStyle;rounded=0;orthogonalLoop=1;jettySize=auto;html=1;entryX=0.5;entryY=1;entryDx=0;entryDy=0;endArrow=none;endFill=0;" parent="1" source="1c6ZH7vMenbnLPpmqNAf-54" target="1c6ZH7vMenbnLPpmqNAf-55" edge="1">
          <mxGeometry relative="1" as="geometry" />
        </mxCell>
        <mxCell id="1c6ZH7vMenbnLPpmqNAf-54" value="&lt;span style=&quot;font-size: 18px&quot;&gt;Огонь&lt;/span&gt;" style="ellipse;whiteSpace=wrap;html=1;direction=south;" parent="1" vertex="1">
          <mxGeometry x="1340" y="480" width="120" height="120" as="geometry" />
        </mxCell>
        <mxCell id="1c6ZH7vMenbnLPpmqNAf-55" value="&lt;span style=&quot;font-size: 18px&quot;&gt;Свет&lt;/span&gt;" style="ellipse;whiteSpace=wrap;html=1;direction=south;" parent="1" vertex="1">
          <mxGeometry x="1550" y="480" width="120" height="120" as="geometry" />
        </mxCell>
        <mxCell id="1c6ZH7vMenbnLPpmqNAf-66" style="edgeStyle=orthogonalEdgeStyle;rounded=0;orthogonalLoop=1;jettySize=auto;html=1;entryX=0.5;entryY=1;entryDx=0;entryDy=0;endArrow=none;endFill=0;exitX=1;exitY=0.5;exitDx=0;exitDy=0;" parent="1" source="1c6ZH7vMenbnLPpmqNAf-60" target="1c6ZH7vMenbnLPpmqNAf-65" edge="1">
          <mxGeometry relative="1" as="geometry" />
        </mxCell>
        <mxCell id="1c6ZH7vMenbnLPpmqNAf-67" value="&lt;font style=&quot;font-size: 18px&quot;&gt;Летиция Каста&lt;/font&gt;" style="edgeLabel;html=1;align=center;verticalAlign=middle;resizable=0;points=[];" parent="1c6ZH7vMenbnLPpmqNAf-66" vertex="1" connectable="0">
          <mxGeometry x="0.4042" relative="1" as="geometry">
            <mxPoint as="offset" />
          </mxGeometry>
        </mxCell>
        <mxCell id="lqc5_xZJ1Iw9UYwcaw_J-7" style="edgeStyle=orthogonalEdgeStyle;rounded=0;orthogonalLoop=1;jettySize=auto;html=1;endArrow=none;endFill=0;exitX=1;exitY=0.75;exitDx=0;exitDy=0;" edge="1" parent="1" source="1c6ZH7vMenbnLPpmqNAf-60" target="lqc5_xZJ1Iw9UYwcaw_J-5">
          <mxGeometry relative="1" as="geometry" />
        </mxCell>
        <mxCell id="lqc5_xZJ1Iw9UYwcaw_J-8" value="&lt;div style=&quot;font-size: 18px&quot;&gt;&lt;font style=&quot;font-size: 18px&quot;&gt;Любят две богини наблюдать&lt;/font&gt;&lt;/div&gt;&lt;div style=&quot;font-size: 18px&quot;&gt;&lt;font style=&quot;font-size: 18px&quot;&gt;И даже кажется, что им не наплевать&lt;/font&gt;&lt;/div&gt;" style="edgeLabel;html=1;align=center;verticalAlign=middle;resizable=0;points=[];" vertex="1" connectable="0" parent="lqc5_xZJ1Iw9UYwcaw_J-7">
          <mxGeometry x="-0.1592" relative="1" as="geometry">
            <mxPoint y="327" as="offset" />
          </mxGeometry>
        </mxCell>
        <mxCell id="1c6ZH7vMenbnLPpmqNAf-60" value="&lt;span style=&quot;font-size: 18px&quot;&gt;Питер, чай, не Франция&lt;/span&gt;" style="rounded=1;whiteSpace=wrap;html=1;" parent="1" vertex="1">
          <mxGeometry x="600" y="-930" width="250" height="70" as="geometry" />
        </mxCell>
        <mxCell id="lqc5_xZJ1Iw9UYwcaw_J-29" style="edgeStyle=orthogonalEdgeStyle;rounded=0;orthogonalLoop=1;jettySize=auto;html=1;endArrow=none;endFill=0;" edge="1" parent="1" source="1c6ZH7vMenbnLPpmqNAf-65" target="1c6ZH7vMenbnLPpmqNAf-3">
          <mxGeometry relative="1" as="geometry" />
        </mxCell>
        <mxCell id="1c6ZH7vMenbnLPpmqNAf-65" value="&lt;span style=&quot;font-size: 18px&quot;&gt;Женщины Франции&lt;/span&gt;" style="ellipse;whiteSpace=wrap;html=1;" parent="1" vertex="1">
          <mxGeometry x="1335" y="-740" width="120" height="120" as="geometry" />
        </mxCell>
        <mxCell id="lqc5_xZJ1Iw9UYwcaw_J-2" style="edgeStyle=orthogonalEdgeStyle;rounded=0;orthogonalLoop=1;jettySize=auto;html=1;entryX=0.5;entryY=1;entryDx=0;entryDy=0;endArrow=none;endFill=0;" edge="1" parent="1" source="lqc5_xZJ1Iw9UYwcaw_J-1" target="1c6ZH7vMenbnLPpmqNAf-60">
          <mxGeometry relative="1" as="geometry" />
        </mxCell>
        <mxCell id="lqc5_xZJ1Iw9UYwcaw_J-4" value="&lt;div style=&quot;font-size: 18px&quot;&gt;&lt;font style=&quot;font-size: 18px&quot;&gt;Когда отходят воды — рождается что-нибудь&lt;br&gt;выбросы-выкидыши&lt;/font&gt;&lt;/div&gt;" style="edgeLabel;html=1;align=center;verticalAlign=middle;resizable=0;points=[];" vertex="1" connectable="0" parent="lqc5_xZJ1Iw9UYwcaw_J-2">
          <mxGeometry x="-0.1933" y="-3" relative="1" as="geometry">
            <mxPoint y="-1" as="offset" />
          </mxGeometry>
        </mxCell>
        <mxCell id="lqc5_xZJ1Iw9UYwcaw_J-12" style="edgeStyle=orthogonalEdgeStyle;rounded=0;orthogonalLoop=1;jettySize=auto;html=1;entryX=1;entryY=0.75;entryDx=0;entryDy=0;endArrow=none;endFill=0;" edge="1" parent="1" source="lqc5_xZJ1Iw9UYwcaw_J-1" target="lqc5_xZJ1Iw9UYwcaw_J-6">
          <mxGeometry relative="1" as="geometry">
            <Array as="points">
              <mxPoint x="725" y="413" />
            </Array>
          </mxGeometry>
        </mxCell>
        <mxCell id="lqc5_xZJ1Iw9UYwcaw_J-15" style="edgeStyle=orthogonalEdgeStyle;rounded=0;orthogonalLoop=1;jettySize=auto;html=1;entryX=0;entryY=0.5;entryDx=0;entryDy=0;endArrow=none;endFill=0;exitX=1;exitY=0.5;exitDx=0;exitDy=0;" edge="1" parent="1" source="lqc5_xZJ1Iw9UYwcaw_J-1" target="lqc5_xZJ1Iw9UYwcaw_J-5">
          <mxGeometry relative="1" as="geometry">
            <Array as="points">
              <mxPoint x="840" y="305" />
            </Array>
          </mxGeometry>
        </mxCell>
        <mxCell id="lqc5_xZJ1Iw9UYwcaw_J-1" value="&lt;font style=&quot;font-size: 18px&quot;&gt;Петербург как мать&lt;/font&gt;" style="ellipse;whiteSpace=wrap;html=1;" vertex="1" parent="1">
          <mxGeometry x="665" y="245" width="120" height="120" as="geometry" />
        </mxCell>
        <mxCell id="lqc5_xZJ1Iw9UYwcaw_J-5" value="&lt;span style=&quot;font-size: 18px&quot;&gt;Белая Богиня&lt;/span&gt;" style="ellipse;whiteSpace=wrap;html=1;" vertex="1" parent="1">
          <mxGeometry x="965" y="245" width="120" height="120" as="geometry" />
        </mxCell>
        <mxCell id="lqc5_xZJ1Iw9UYwcaw_J-17" style="edgeStyle=orthogonalEdgeStyle;rounded=0;orthogonalLoop=1;jettySize=auto;html=1;entryX=0.5;entryY=1;entryDx=0;entryDy=0;endArrow=none;endFill=0;" edge="1" parent="1" source="lqc5_xZJ1Iw9UYwcaw_J-6" target="1c6ZH7vMenbnLPpmqNAf-1">
          <mxGeometry relative="1" as="geometry" />
        </mxCell>
        <mxCell id="lqc5_xZJ1Iw9UYwcaw_J-30" style="edgeStyle=orthogonalEdgeStyle;rounded=0;orthogonalLoop=1;jettySize=auto;html=1;entryX=0.5;entryY=1;entryDx=0;entryDy=0;endArrow=none;endFill=0;exitX=0.75;exitY=0;exitDx=0;exitDy=0;" edge="1" parent="1" source="lqc5_xZJ1Iw9UYwcaw_J-6" target="lqc5_xZJ1Iw9UYwcaw_J-23">
          <mxGeometry relative="1" as="geometry">
            <Array as="points">
              <mxPoint x="68" y="-40" />
              <mxPoint x="210" y="-40" />
            </Array>
          </mxGeometry>
        </mxCell>
        <mxCell id="lqc5_xZJ1Iw9UYwcaw_J-34" value="&lt;span style=&quot;font-size: 18px&quot;&gt;Город как мать&lt;/span&gt;" style="edgeLabel;html=1;align=center;verticalAlign=middle;resizable=0;points=[];" vertex="1" connectable="0" parent="lqc5_xZJ1Iw9UYwcaw_J-30">
          <mxGeometry x="-0.0164" y="1" relative="1" as="geometry">
            <mxPoint x="6.289999999999999" as="offset" />
          </mxGeometry>
        </mxCell>
        <mxCell id="lqc5_xZJ1Iw9UYwcaw_J-36" style="edgeStyle=orthogonalEdgeStyle;rounded=0;orthogonalLoop=1;jettySize=auto;html=1;endArrow=none;endFill=0;exitX=1;exitY=0.25;exitDx=0;exitDy=0;" edge="1" parent="1" source="lqc5_xZJ1Iw9UYwcaw_J-6" target="lqc5_xZJ1Iw9UYwcaw_J-19">
          <mxGeometry relative="1" as="geometry" />
        </mxCell>
        <mxCell id="lqc5_xZJ1Iw9UYwcaw_J-37" value="&lt;div style=&quot;font-size: 18px&quot;&gt;&lt;font style=&quot;font-size: 18px&quot;&gt;Вероятности точка в динамике&lt;/font&gt;&lt;/div&gt;&lt;div style=&quot;font-size: 18px&quot;&gt;&lt;font style=&quot;font-size: 18px&quot;&gt;Развернётся кривою над нами, где&lt;/font&gt;&lt;/div&gt;&lt;div style=&quot;font-size: 18px&quot;&gt;&lt;font style=&quot;font-size: 18px&quot;&gt;Затрясёт в пиках, будто от тремора&lt;/font&gt;&lt;/div&gt;&lt;div style=&quot;font-size: 18px&quot;&gt;&lt;font style=&quot;font-size: 18px&quot;&gt;Значит выкидыш точно одна из двух&lt;/font&gt;&lt;/div&gt;&lt;div style=&quot;font-size: 18px&quot;&gt;&lt;font style=&quot;font-size: 18px&quot;&gt;Новорожденных точек экстремума&lt;/font&gt;&lt;/div&gt;" style="edgeLabel;html=1;align=center;verticalAlign=middle;resizable=0;points=[];" vertex="1" connectable="0" parent="lqc5_xZJ1Iw9UYwcaw_J-36">
          <mxGeometry x="0.7552" y="3" relative="1" as="geometry">
            <mxPoint x="3" y="60.83" as="offset" />
          </mxGeometry>
        </mxCell>
        <mxCell id="lqc5_xZJ1Iw9UYwcaw_J-6" value="&lt;span style=&quot;font-size: 18px&quot;&gt;Альма-матер&lt;br&gt;&lt;/span&gt;" style="rounded=1;whiteSpace=wrap;html=1;" vertex="1" parent="1">
          <mxGeometry x="-120" y="360" width="250" height="70" as="geometry" />
        </mxCell>
        <mxCell id="lqc5_xZJ1Iw9UYwcaw_J-19" value="&lt;span style=&quot;font-size: 18px&quot;&gt;Матан&lt;/span&gt;" style="ellipse;whiteSpace=wrap;html=1;direction=south;" vertex="1" parent="1">
          <mxGeometry x="405" y="-60" width="120" height="120" as="geometry" />
        </mxCell>
        <mxCell id="lqc5_xZJ1Iw9UYwcaw_J-27" style="edgeStyle=orthogonalEdgeStyle;rounded=0;orthogonalLoop=1;jettySize=auto;html=1;entryX=0.25;entryY=1;entryDx=0;entryDy=0;endArrow=none;endFill=0;exitX=0.5;exitY=0;exitDx=0;exitDy=0;" edge="1" parent="1" source="lqc5_xZJ1Iw9UYwcaw_J-23" target="1c6ZH7vMenbnLPpmqNAf-60">
          <mxGeometry relative="1" as="geometry">
            <mxPoint x="270" y="-750" as="sourcePoint" />
            <Array as="points">
              <mxPoint x="210" y="-830" />
              <mxPoint x="663" y="-830" />
            </Array>
          </mxGeometry>
        </mxCell>
        <mxCell id="lqc5_xZJ1Iw9UYwcaw_J-28" value="&lt;font style=&quot;font-size: 18px&quot;&gt;Этот город дышит&lt;/font&gt;" style="edgeLabel;html=1;align=center;verticalAlign=middle;resizable=0;points=[];" vertex="1" connectable="0" parent="lqc5_xZJ1Iw9UYwcaw_J-27">
          <mxGeometry x="-0.7094" y="1" relative="1" as="geometry">
            <mxPoint x="236" y="1" as="offset" />
          </mxGeometry>
        </mxCell>
        <mxCell id="lqc5_xZJ1Iw9UYwcaw_J-35" style="edgeStyle=orthogonalEdgeStyle;rounded=0;orthogonalLoop=1;jettySize=auto;html=1;entryX=1;entryY=0.5;entryDx=0;entryDy=0;endArrow=none;endFill=0;" edge="1" parent="1" source="lqc5_xZJ1Iw9UYwcaw_J-23" target="1c6ZH7vMenbnLPpmqNAf-1">
          <mxGeometry relative="1" as="geometry">
            <Array as="points">
              <mxPoint x="140" y="-740" />
              <mxPoint x="140" y="-210" />
            </Array>
          </mxGeometry>
        </mxCell>
        <mxCell id="lqc5_xZJ1Iw9UYwcaw_J-23" value="&lt;span style=&quot;font-size: 18px&quot;&gt;Петербург живой&lt;/span&gt;" style="ellipse;whiteSpace=wrap;html=1;" vertex="1" parent="1">
          <mxGeometry x="150" y="-800" width="120" height="120" as="geometry" />
        </mxCell>
      </root>
    </mxGraphModel>
  </diagram>
</mxfile>
